<?xml version="1.0" encoding="iso-8859-1"?>
<!-- Generator: Adobe Illustrator 19.0.0, SVG Export Plug-In . SVG Version: 6.00 Build 0)  -->
<svg version="1.1" id="Layer_1" xmlns="http://www.w3.org/2000/svg" xmlns:xlink="http://www.w3.org/1999/xlink" x="0px" y="0px"
	 viewBox="0 0 512 512" style="enable-background:new 0 0 512 512;" xml:space="preserve">
<g>
	<g>
		<path d="M449.977,127.253c-21.266-46.187-76.528-67.663-123.996-45.804c-9.502,4.374-18.035,10.206-25.399,17.209l-25.028-18.232
			l0.506-37.666l15.821-7.283c8.399-3.866,12.074-13.811,8.207-22.209c-3.865-8.399-13.809-12.076-22.209-8.207l-45.58,20.984
			c-8.399,3.866-12.074,13.811-8.207,22.209c2.823,6.132,8.884,9.745,15.219,9.745c1.018,0,2.042-0.112,3.062-0.304l-0.248,18.446
			l-132.839,51.214l-3.62-15.273c-1.837-7.75-8.886-13.106-16.84-12.873l-41.896,1.374l-7.442-7.477
			c-6.522-6.555-17.123-6.581-23.678-0.059c-6.555,6.522-6.581,17.123-0.059,23.678l12.579,12.641
			c3.277,3.293,7.78,5.064,12.418,4.925l35.492-1.164l13.53,57.095c-0.531,0.233-1.063,0.464-1.592,0.708
			c-46.924,21.603-67.421,77.051-45.814,123.984c21.47,46.631,76.916,67.493,123.989,45.818
			c46.925-21.603,67.416-77.06,45.809-123.991c-5.43-11.796-13.18-22.09-22.545-30.467l60.623,25.162
			c0.026,0.011,0.052,0.021,0.078,0.032c4.679,1.943,9.453,1.787,13.67-0.152l24.564-11.31
			c25.813,36.712,74.285,50.267,115.601,31.244C450.975,229.696,471.531,174.071,449.977,127.253z M132.346,182.503
			c-3.203-0.177-6.146-0.229-9.999-0.029l-1.083-4.571L132.346,182.503z M152.351,330.318
			c-30.374,13.981-65.864,0.362-79.568-29.406c-13.283-28.852-1.717-62.217,24.912-77.253l10.19,42.998
			c-2.614,5.535-2.859,12.143-0.098,18.139c4.955,10.762,17.691,15.478,28.451,10.523c10.747-4.948,15.459-17.697,10.504-28.459
			c-1.479-3.212-3.663-5.871-6.272-7.909l-10.199-43.032c22.155,1.135,42.136,14.545,51.473,34.827
			C195.61,280.857,182.47,316.449,152.351,330.318z M240.579,191.172l-98.106-40.721l99.165-38.232L240.579,191.172z
			 M274.086,189.806l0.025-1.827c0.129,0.541,0.29,1.077,0.43,1.617L274.086,189.806z M274.721,142.408l0.281-20.953l5.883,4.285
			C278.342,131.039,276.322,136.41,274.721,142.408z M308.665,145.977l23.473,17.1l-26.403,12.157
			C304.263,165.492,305.226,155.49,308.665,145.977z M390.151,220.837c-24.64,11.342-53.112,4.649-70.381-15.201l40.141-18.483
			c4.564,1.14,9.527,0.805,14.128-1.314c10.76-4.954,15.473-17.704,10.518-28.465c-3.758-8.164-12.003-12.829-20.463-12.449
			l-35.725-26.024c3.556-2.739,7.437-5.111,11.615-7.034c30.501-14.043,65.935-0.234,79.576,29.391
			C433.393,171.305,420.2,207.003,390.151,220.837z"/>
	</g>
</g>
<g>
	<g>
		<path d="M502.492,205.408c-5.809-2.784-12.704-1.988-17.725,2.049l-97.228,78.154l-129.398,28.068
			c-3.869,0.839-7.315,3.023-9.728,6.162l-55.778,72.597L69.853,406.247c-2.929,0.329-5.718,1.425-8.088,3.18L6.784,450.111
			C2.517,453.267,0,458.261,0,463.569v28.166c0,9.246,7.496,16.743,16.743,16.743h478.515c9.246,0,16.743-7.496,16.743-16.743
			V220.507C512,214.064,508.302,208.193,502.492,205.408z"/>
	</g>
</g>
<g>
</g>
<g>
</g>
<g>
</g>
<g>
</g>
<g>
</g>
<g>
</g>
<g>
</g>
<g>
</g>
<g>
</g>
<g>
</g>
<g>
</g>
<g>
</g>
<g>
</g>
<g>
</g>
<g>
</g>
</svg>
